<svg xmlns="http://www.w3.org/2000/svg" version="1.0" width="512.000000pt" height="512.000000pt" viewBox="0 0 512.000000 512.000000" preserveAspectRatio="xMidYMid meet">

<g transform="translate(0.000000,512.000000) scale(0.100000,-0.100000)" fill="#f48303" stroke="none">
<path d="M220 5093 c-63 -22 -126 -69 -161 -122 -63 -96 -59 24 -57 -1906 l3 -1760 28 -57 c33 -67 90 -121 166 -157 l56 -26 2305 0 2305 0 56 26 c76 36 133 90 166 157 l28 57 0 1780 0 1780 -27 57 c-31 66 -90 127 -156 159 l-47 24 -1812 3 -1813 2 0 -75 0 -75 1784 0 c1237 0 1793 -3 1813 -11 38 -14 83 -57 99 -96 12 -27 14 -264 14 -1418 l0 -1385 -447 -2 -448 -3 -3 -72 -3 -73 451 0 450 0 0 -272 c0 -315 -5 -334 -81 -385 l-43 -28 -2280 0 c-2224 0 -2282 0 -2319 19 -22 11 -51 37 -65 59 l-27 40 -3 284 -3 283 1891 0 1891 0 -3 72 -3 73 -1887 3 -1888 2 0 1385 c0 1154 2 1391 14 1418 16 39 61 82 99 96 18 7 173 11 438 11 l409 0 0 75 0 75 -422 0 c-358 -1 -430 -3 -468 -17z" fill="#f48303"/>
<path d="M3300 4263 l-312 -378 136 -3 136 -3 0 -734 0 -735 400 0 400 0 0 735 0 735 140 0 140 0 -313 379 -312 380 -52 0 -52 1 -311 -377z m543 -18 l174 -210 -53 -3 -54 -3 0 -734 0 -735 -250 0 -250 0 0 734 0 735 -52 3 -51 3 174 212 c96 116 177 211 181 210 4 -1 86 -96 181 -212z" fill="#f48303"/>
<path d="M3590 3035 l0 -75 75 0 76 0 -3 73 -3 72 -72 3 -73 3 0 -76z" fill="#f48303"/>
<path d="M1960 3150 l0 -740 400 0 400 0 0 740 0 740 -400 0 -400 0 0 -740z m650 0 l0 -590 -250 0 -250 0 0 590 0 590 250 0 250 0 0 -590z" fill="#f48303"/>
<path d="M2290 3035 l0 -75 75 0 75 0 0 75 0 75 -75 0 -75 0 0 -75z" fill="#f48303"/>
<path d="M860 3035 l0 -625 400 0 400 0 0 625 0 625 -400 0 -400 0 0 -625z m650 0 l0 -475 -185 0 -185 0 0 475 0 475 185 0 185 0 0 -475z" fill="#f48303"/>
<path d="M1180 3030 l0 -80 80 0 80 0 0 80 0 80 -80 0 -80 0 0 -80z" fill="#f48303"/>
<path d="M1880 846 c0 -2 -11 -58 -25 -126 -14 -68 -25 -124 -25 -126 0 -2 -115 -4 -255 -4 l-255 0 0 -290 0 -290 1240 0 1240 0 0 290 0 290 -255 0 c-140 0 -255 2 -255 4 0 12 -51 250 -54 253 -5 6 -129 -18 -138 -26 -3 -3 4 -57 16 -118 l23 -113 -577 0 -577 0 23 117 c13 64 23 117 22 118 -5 3 -121 25 -135 25 -7 0 -13 -2 -13 -4z m1770 -546 l0 -140 -1090 0 -1090 0 0 140 0 140 1090 0 1090 0 0 -140z" fill="#f48303"/>
</g>
</svg>