<svg xmlns="http://www.w3.org/2000/svg" version="1.0" width="512.000000pt" height="512.000000pt" viewBox="0 0 512.000000 512.000000" preserveAspectRatio="xMidYMid meet">

<g transform="translate(0.000000,512.000000) scale(0.100000,-0.100000)" fill="#f48303" stroke="none">
<path d="M2472 4907 c-31 -30 -264 -244 -517 -476 -253 -233 -472 -436 -487 -452 -36 -37 -37 -81 -3 -114 23 -24 28 -25 175 -25 82 0 150 -3 150 -6 0 -5 -260 -577 -264 -582 -2 -1 -39 15 -84 35 l-82 38 0 73 c0 64 -3 76 -25 97 -24 25 -26 25 -215 25 -189 0 -191 0 -215 -25 -22 -21 -25 -33 -25 -98 l0 -74 -67 -26 -67 -27 -51 50 c-81 80 -91 77 -248 -77 -71 -71 -133 -139 -138 -151 -12 -31 12 -82 57 -122 19 -16 34 -35 34 -41 0 -7 -10 -38 -21 -70 l-22 -59 -74 0 c-65 0 -77 -3 -98 -25 -25 -24 -25 -26 -25 -215 0 -189 0 -191 25 -215 21 -22 33 -25 98 -25 l74 0 26 -67 27 -67 -50 -51 c-80 -81 -77 -91 78 -248 70 -71 137 -133 149 -138 32 -12 62 2 111 50 23 23 48 41 55 41 28 0 109 -42 104 -53 -3 -7 -161 -353 -351 -771 -190 -417 -346 -769 -346 -783 0 -13 11 -35 25 -48 l24 -25 2351 0 2351 0 24 25 c14 13 25 36 25 50 0 15 -158 370 -350 791 -193 421 -350 768 -350 772 0 4 26 17 57 29 l57 23 51 -50 c41 -40 57 -50 85 -50 31 0 48 14 167 133 122 122 133 136 133 169 0 30 -9 46 -48 89 l-49 53 25 63 25 63 74 0 c65 0 77 3 98 25 25 24 25 26 25 215 0 189 0 191 -25 215 -21 22 -33 25 -98 25 l-74 0 -26 67 -27 67 50 51 c80 81 77 91 -77 248 -71 71 -139 133 -151 138 -30 12 -77 -10 -122 -56 -19 -19 -38 -35 -43 -35 -6 0 -36 10 -68 21 l-59 22 0 74 c0 65 -3 77 -25 98 -24 25 -26 25 -215 25 -189 0 -191 0 -215 -25 -22 -21 -25 -33 -25 -97 l0 -73 -82 -38 c-45 -20 -83 -36 -84 -34 -5 4 -264 576 -264 581 0 3 68 6 150 6 147 0 152 1 175 25 36 35 33 77 -7 119 -18 19 -240 224 -493 457 -253 232 -483 444 -512 471 -71 66 -96 65 -171 -5z m507 -522 l412 -380 -116 -5 c-108 -5 -118 -7 -136 -29 -10 -13 -19 -34 -19 -48 0 -13 367 -827 815 -1808 448 -981 815 -1786 815 -1789 0 -3 -985 -6 -2190 -6 -1204 0 -2190 3 -2190 6 0 3 367 809 815 1791 448 982 815 1795 815 1808 0 12 -9 33 -19 46 -18 22 -28 24 -135 29 l-116 5 413 382 c226 210 415 381 418 380 4 -1 192 -173 418 -382z m-1779 -1088 c0 -84 13 -100 102 -127 40 -12 92 -33 115 -46 l43 -25 -33 -67 c-17 -37 -33 -68 -33 -70 -1 -2 -25 8 -53 23 -121 61 -273 71 -394 25 -82 -31 -173 -103 -224 -178 -174 -255 -68 -599 221 -716 l55 -23 -34 -71 -34 -72 -53 21 c-29 11 -67 29 -84 40 -50 31 -79 25 -135 -28 l-50 -47 -56 57 -57 56 47 50 c55 58 58 83 23 144 -14 23 -37 78 -51 122 -33 102 -48 115 -131 115 l-64 0 0 80 0 80 64 0 c83 0 98 13 131 115 14 44 37 99 51 122 35 61 32 86 -23 144 l-47 50 57 56 56 57 50 -47 c58 -55 83 -58 144 -23 23 14 78 37 122 51 102 33 115 48 115 131 l0 64 80 0 80 0 0 -63z m2880 -1 c0 -83 13 -98 115 -131 44 -14 99 -37 122 -51 61 -35 86 -32 144 23 l50 47 56 -57 57 -56 -47 -50 c-55 -58 -58 -83 -23 -144 14 -23 37 -78 51 -122 33 -102 48 -115 131 -115 l64 0 0 -80 0 -80 -64 0 c-83 0 -98 -13 -131 -115 -14 -44 -37 -99 -51 -122 -35 -61 -32 -86 23 -144 l47 -50 -57 -56 -56 -57 -50 47 c-56 53 -85 59 -135 28 -17 -11 -55 -29 -84 -40 l-53 -21 -34 72 -34 71 55 23 c183 74 291 224 302 420 6 115 -18 204 -81 296 -136 199 -398 264 -618 153 -28 -15 -52 -25 -53 -23 0 2 -16 33 -33 70 l-32 67 32 20 c18 11 68 31 112 46 102 33 115 49 115 131 l0 64 80 0 80 0 0 -64z m-2823 -449 c28 -15 54 -31 58 -36 9 -16 -241 -555 -259 -559 -9 -2 -40 7 -69 21 -119 54 -178 142 -185 273 -4 73 -1 89 22 140 41 90 113 155 206 185 14 5 59 7 100 5 57 -2 87 -9 127 -29z m2888 1 c66 -35 118 -90 151 -162 23 -51 26 -67 22 -140 -7 -131 -66 -219 -185 -273 -29 -14 -60 -23 -69 -21 -18 4 -268 543 -259 559 7 11 78 48 115 60 14 5 59 7 100 5 57 -2 87 -9 125 -28z" fill="#f48303"/>
<path d="M2445 2708 c-27 -5 -86 -27 -131 -48 -275 -133 -391 -469 -256 -742 31 -64 35 -79 23 -82 -9 -3 -162 -39 -341 -81 -179 -42 -333 -81 -342 -86 -10 -5 -22 -18 -28 -29 -6 -12 -10 -212 -10 -565 l0 -546 25 -24 24 -25 1151 0 1151 0 24 25 25 24 0 546 c0 353 -4 553 -10 565 -6 11 -19 24 -29 30 -10 5 -164 44 -342 85 -178 42 -331 78 -340 81 -12 3 -8 18 23 82 204 411 -159 876 -617 790z m279 -186 c91 -42 149 -100 194 -190 35 -72 37 -81 37 -172 0 -91 -2 -100 -37 -172 -45 -91 -103 -147 -196 -191 -61 -29 -76 -32 -162 -32 -86 0 -101 3 -162 32 -93 44 -151 100 -196 191 -35 72 -37 81 -37 171 0 87 3 102 32 163 40 85 97 147 172 186 78 42 122 52 213 48 61 -3 92 -11 142 -34z m-448 -842 c84 -53 166 -75 284 -75 118 0 200 22 284 75 l46 30 287 -71 c159 -38 318 -77 356 -85 l67 -16 0 -449 0 -449 -240 0 -240 0 0 280 0 280 -80 0 -80 0 0 -280 0 -280 -400 0 -400 0 0 280 0 280 -80 0 -80 0 0 -280 0 -280 -240 0 -240 0 0 448 0 448 323 78 c177 43 333 81 347 86 36 12 35 13 86 -20z" fill="#f48303"/>
</g>
</svg>