<svg width="18" height="18" viewBox="0 0 18 18" fill="none" xmlns="http://www.w3.org/2000/svg">
<path fill-rule="evenodd" clip-rule="evenodd" d="M17.9367 5.28875C17.8685 3.84682 17.5392 2.56957 16.4831 1.51724C15.431 0.464909 14.1541 0.135557 12.7124 0.0632603C11.2266 -0.0210868 6.77333 -0.0210868 5.28756 0.0632603C3.84997 0.131541 2.57301 0.460898 1.5169 1.51322C0.460792 2.56555 0.135527 3.8428 0.0632461 5.28473C-0.021082 6.77084 -0.021082 11.2251 0.0632461 12.7113C0.131512 14.1532 0.460792 15.4304 1.5169 16.4828C2.57301 17.5351 3.84595 17.8645 5.28756 17.9367C6.77333 18.0211 11.2266 18.0211 12.7124 17.9367C14.1541 17.8684 15.431 17.5391 16.4831 16.4828C17.5352 15.4304 17.8645 14.1532 17.9367 12.7113C18.0211 11.2251 18.0211 6.77486 17.9367 5.28875ZM13.8047 5.27297C14.399 5.27297 14.881 4.79501 14.881 4.19655C14.881 3.6021 14.399 3.12012 13.8047 3.12012C13.2104 3.12012 12.7285 3.6021 12.7285 4.19655C12.7285 4.79099 13.2064 5.27297 13.8047 5.27297ZM9.00261 4.38477C6.44868 4.38477 4.38867 6.44524 4.38867 8.99975C4.38867 11.5542 6.44868 13.6147 9.00261 13.6147C11.5565 13.6147 13.6166 11.5542 13.6166 8.99975C13.6166 6.44524 11.5565 4.38477 9.00261 4.38477ZM9.00259 12.0007C7.35217 12.0007 6.00293 10.6551 6.00293 9.00033C6.00293 7.34553 7.34816 6 9.00259 6C10.657 6 12.0022 7.34553 12.0022 9.00033C12.0022 10.6551 10.653 12.0007 9.00259 12.0007ZM14.3073 16.0164C15.0985 15.699 15.7048 15.0925 16.018 14.3054C16.421 13.2925 16.3985 11.0772 16.384 9.64104C16.3816 9.40273 16.3794 9.18586 16.3794 8.99951C16.3794 8.81312 16.3816 8.5963 16.384 8.35806C16.3985 6.92265 16.421 4.7099 16.018 3.69369C15.7008 2.90244 15.0944 2.29595 14.3073 1.98265C13.2915 1.58177 11.0658 1.60313 9.63035 1.6169C9.3975 1.61913 9.18544 1.62117 9.00272 1.62117C8.81644 1.62117 8.59974 1.61897 8.36164 1.61656C6.92656 1.60201 4.71414 1.57959 3.6981 1.98265C2.90702 2.29996 2.30067 2.90646 1.98745 3.69369C1.58666 4.70972 1.60801 6.93594 1.62178 8.37169C1.62401 8.60462 1.62605 8.81674 1.62605 8.99951C1.62605 9.18584 1.62385 9.4026 1.62144 9.64075C1.6069 11.0762 1.58448 13.2891 1.98745 14.3054C2.30469 15.0966 2.91104 15.7031 3.6981 16.0164C4.71391 16.4173 6.93968 16.3959 8.37511 16.3822C8.60796 16.3799 8.82001 16.3779 9.00272 16.3779C9.18896 16.3779 9.40558 16.3801 9.6436 16.3825C11.0787 16.397 13.2913 16.4194 14.3073 16.0164Z" fill="#3574D6"/>
</svg>
