<svg xmlns="http://www.w3.org/2000/svg" version="1.0" width="512.000000pt" height="512.000000pt" viewBox="0 0 512.000000 512.000000" preserveAspectRatio="xMidYMid meet">

<g transform="translate(0.000000,512.000000) scale(0.100000,-0.100000)" fill="#f48303" stroke="none">
<path d="M3623 4999 c-74 -29 -146 -97 -185 -177 -30 -60 -33 -75 -33 -152 0 -71 5 -94 26 -140 39 -81 90 -134 167 -172 60 -30 75 -33 157 -33 78 0 97 4 147 28 203 100 265 353 130 532 -39 52 -121 108 -182 125 -59 16 -170 11 -227 -11z m205 -135 c146 -60 177 -253 57 -351 -63 -53 -154 -63 -226 -27 -41 21 -97 90 -105 129 -20 107 20 195 107 239 60 30 113 33 167 10z" fill="#f48303"/>
<path d="M3515 4256 c-33 -8 -91 -26 -130 -40 -106 -40 -455 -224 -494 -260 -35 -33 -279 -320 -394 -464 -89 -111 -107 -148 -107 -215 0 -154 149 -269 288 -223 67 22 112 64 274 249 148 169 148 169 127 52 -6 -33 -14 -229 -18 -435 l-8 -375 -152 -349 c-84 -192 -157 -370 -163 -396 -8 -37 -7 -57 6 -103 38 -131 162 -200 290 -163 101 30 114 49 326 481 105 213 195 406 200 429 5 22 10 74 10 114 l0 74 148 -7 c81 -4 173 -10 205 -14 l59 -6 58 -153 c32 -84 70 -168 84 -187 14 -18 51 -46 81 -61 49 -23 64 -26 122 -21 77 6 130 37 177 105 25 35 31 55 34 110 3 60 -2 84 -52 229 -84 246 -144 353 -224 400 -48 28 -153 47 -327 59 l-108 7 6 136 c6 114 31 308 42 319 1 2 19 -8 40 -22 93 -64 147 -54 530 97 313 123 321 127 366 176 109 118 80 292 -60 364 -93 46 -123 41 -400 -68 -133 -52 -248 -95 -257 -95 -8 0 -49 29 -92 64 -209 172 -342 225 -487 192z m190 -165 c61 -28 170 -107 280 -200 37 -31 70 -51 85 -51 14 0 146 47 294 105 147 58 276 105 286 105 10 0 32 -12 49 -26 24 -20 31 -34 31 -61 0 -47 -14 -70 -58 -92 -74 -37 -610 -241 -635 -241 -16 0 -52 22 -99 60 -110 90 -149 80 -188 -46 -32 -105 -49 -222 -61 -416 -13 -197 -9 -242 24 -262 14 -8 87 -18 197 -25 229 -17 265 -23 296 -52 37 -35 95 -162 150 -330 44 -135 47 -149 34 -178 -25 -60 -104 -77 -146 -30 -10 11 -48 97 -84 191 -48 126 -72 176 -90 189 -19 13 -60 20 -171 28 -185 14 -404 14 -429 1 -26 -14 -37 -62 -45 -194 l-7 -109 -185 -371 c-101 -204 -194 -381 -206 -393 -47 -52 -147 -10 -147 61 0 18 64 180 153 386 84 195 157 366 161 380 4 14 11 203 16 420 8 376 10 403 39 569 28 158 29 177 16 198 -32 49 -94 39 -170 -28 -21 -19 -120 -128 -220 -244 -100 -116 -194 -219 -208 -228 -41 -27 -81 -22 -111 14 -14 17 -26 41 -26 54 0 29 59 107 287 377 l171 204 174 91 c346 181 423 202 543 144z" fill="#f48303"/>
<path d="M1975 2580 c-404 -67 -421 -70 -443 -96 -35 -41 -22 -67 85 -175 l96 -97 -54 -78 c-72 -104 -239 -277 -369 -381 -204 -165 -482 -337 -830 -513 -96 -48 -183 -97 -193 -108 -26 -28 -19 -80 13 -104 24 -18 30 -18 205 2 230 26 388 53 544 91 410 101 743 291 1014 580 l92 98 81 -80 c49 -47 90 -79 102 -79 12 0 32 10 47 23 24 21 28 39 90 477 64 448 65 455 47 480 -15 19 -29 25 -63 27 -24 1 -233 -29 -464 -67z m381 -117 c-3 -16 -21 -143 -41 -283 -20 -140 -38 -268 -41 -283 l-6 -28 -58 55 c-35 34 -67 56 -81 56 -13 0 -40 -19 -68 -48 -254 -265 -330 -332 -486 -429 -183 -114 -411 -205 -645 -256 -137 -30 -207 -42 -199 -33 3 4 62 38 130 77 394 225 702 475 885 719 96 128 137 203 129 232 -4 13 -34 51 -68 85 -33 34 -59 64 -56 66 6 6 547 94 582 96 26 1 28 -2 23 -26z" fill="#f48303"/>
<path d="M3807 2062 c-16 -17 -17 -99 -17 -974 0 -912 1 -956 18 -971 17 -15 62 -17 435 -17 415 0 416 0 437 22 20 22 20 30 20 968 0 938 0 946 -20 968 -21 22 -22 22 -439 22 -392 0 -419 -1 -434 -18z m748 -972 l0 -845 -312 -3 -313 -2 0 850 0 850 313 -2 312 -3 0 -845z" fill="#f48303"/>
<path d="M2629 1421 l-24 -19 0 -630 c0 -605 1 -631 19 -651 19 -21 25 -21 437 -21 l418 0 20 26 c21 26 21 35 21 646 l0 619 -25 24 -24 25 -409 0 c-389 0 -411 -1 -433 -19z m741 -651 l0 -530 -310 0 -310 0 0 530 0 530 310 0 310 0 0 -530z" fill="#f48303"/>
<path d="M1441 1064 c-21 -26 -21 -37 -21 -469 0 -432 0 -443 21 -469 l20 -26 419 0 419 0 20 26 c21 26 21 37 21 469 0 432 0 443 -21 469 l-20 26 -419 0 -419 0 -20 -26z m749 -469 l0 -355 -310 0 -310 0 0 355 0 355 310 0 310 0 0 -355z" fill="#f48303"/>
<path d="M261 714 c-20 -25 -21 -39 -21 -291 0 -260 4 -295 34 -315 6 -4 198 -8 427 -8 410 0 416 0 435 21 18 20 19 40 19 301 l0 280 -24 19 c-22 18 -45 19 -436 19 l-414 0 -20 -26z m749 -294 l0 -180 -310 0 -310 0 0 180 0 180 310 0 310 0 0 -180z" fill="#f48303"/>
</g>
</svg>