<svg width="18" height="18" viewBox="0 0 18 18" fill="none" xmlns="http://www.w3.org/2000/svg">
<path fill-rule="evenodd" clip-rule="evenodd" d="M17.3988 9.0378C17.3988 9.4302 17.3715 9.8154 17.3189 10.1934C17.7493 10.953 17.9964 11.8278 17.9982 12.7602C17.9982 15.6546 15.6224 18 12.6926 18C11.7118 18 10.7909 17.7354 10.0026 17.2764C9.67386 17.316 9.33966 17.3358 9 17.3358C4.36105 17.3358 0.601211 13.6206 0.601211 9.0396C0.601211 8.6256 0.630272 8.2206 0.690212 7.8228C0.250656 7.0596 0 6.1776 0 5.238C0 2.3454 2.37397 0 5.30373 0C6.33179 0 7.29082 0.2898 8.10454 0.7884C8.39879 0.7578 8.69667 0.7416 9 0.7416C13.639 0.7416 17.3988 4.4568 17.3988 9.0378ZM10.5875 13.4622C11.0779 13.2894 11.5047 12.9762 11.8135 12.5604C12.1169 12.1212 12.2694 11.5992 12.2494 11.0664C12.2622 10.6326 12.1514 10.2042 11.9334 9.82805C11.71 9.47165 11.4103 9.16565 11.0561 8.93705C10.6056 8.64905 10.1298 8.40605 9.63209 8.21165C9.5776 8.18645 9.52311 8.16485 9.4668 8.14685C8.95822 7.93805 8.57497 7.77065 8.31705 7.64465C8.08638 7.53665 7.87931 7.39085 7.70313 7.20905C7.556 7.05425 7.47427 6.84905 7.47608 6.63665C7.46155 6.30545 7.62866 5.99405 7.91382 5.82305C8.24622 5.62685 8.62765 5.52965 9.01271 5.54405C9.30878 5.54045 9.60484 5.57645 9.89001 5.65205C10.2006 5.74025 10.5039 5.85005 10.8 5.98145C10.9199 6.03545 11.0488 6.06425 11.1814 6.06605C11.3758 6.07145 11.5629 5.99405 11.6955 5.85365C11.8371 5.70245 11.9098 5.50085 11.9007 5.29565C11.9043 5.09945 11.8353 4.90865 11.7064 4.75925C11.532 4.57925 11.3158 4.44245 11.0761 4.36145C10.8145 4.26785 10.5457 4.19765 10.2714 4.15625C9.88819 4.09325 9.49949 4.06445 9.1108 4.06805C8.51685 4.06445 7.92654 4.16345 7.3671 4.35965C6.85308 4.53245 6.39354 4.83665 6.03572 5.24165C5.69243 5.64485 5.5108 6.16145 5.52533 6.68885C5.51261 7.10465 5.6107 7.51685 5.80868 7.88405C6.01392 8.23325 6.29728 8.52845 6.63693 8.74985C7.08739 9.04145 7.56509 9.28625 8.06458 9.48425C8.6222 9.71645 9.05449 9.91265 9.36327 10.0728C9.62482 10.2006 9.86095 10.3698 10.0626 10.5768C10.2151 10.737 10.3005 10.9494 10.3005 11.1708C10.3132 11.4858 10.1715 11.79 9.92089 11.9844C9.59031 12.2058 9.19435 12.3102 8.79657 12.2814C8.57316 12.2832 8.34793 12.2616 8.12815 12.213C7.95015 12.1734 7.77578 12.1194 7.60686 12.0492C7.45974 11.9862 7.25812 11.8908 7.00383 11.7648C6.79859 11.6568 6.56973 11.5992 6.33723 11.5956C6.12835 11.5884 5.92311 11.6586 5.7669 11.7954C5.61433 11.9394 5.53441 12.141 5.54531 12.348C5.54167 12.5406 5.5998 12.7314 5.71423 12.8898C5.85227 13.0608 6.03027 13.1976 6.23189 13.2876C7.02381 13.6278 7.88113 13.7898 8.74389 13.7592C9.37235 13.7718 9.99717 13.671 10.5875 13.4622Z" fill="#3574D6"/>
</svg>
